# xmcd
# 
# Track frame offsets:
#     150
#     10603
#     23982
#     35251
#     46356
#     60262
#     73046
#     79551
#     96258
#     106603
#     117694
#     125862
#     139205
#     153317
# 
# Disc length: 2250
# 
# Revision: 17
# Processed by: cddbd v1.5.2PL0 Copyright (c) Steve Scherf et al.
# Submitted via: fre:ac v1.0.31
# 
DISCID=b308c80e
DTITLE=Gnarls Barkley - St. Elsewhere
DYEAR=2006
DGENRE=Rhythm and Blues
TTITLE0=Go-Go Gadget Gospel
TTITLE1=Crazy
TTITLE2=St. Elsewhere
TTITLE3=Gone Daddy Gone
TTITLE4=Smiley Faces
TTITLE5=The Boogie Monster
TTITLE6=Feng Shui
TTITLE7=Just a Thought
TTITLE8=Transformer
TTITLE9=Who Cares?
TTITLE10=Online
TTITLE11=Necromancer
TTITLE12=Storm Coming
TTITLE13=The Last Time
EXTD=
EXTT0=
EXTT1=
EXTT2=
EXTT3=
EXTT4=
EXTT5=
EXTT6=
EXTT7=
EXTT8=
EXTT9=
EXTT10=
EXTT11=
EXTT12=
EXTT13=
PLAYORDER=
